<svg width="71" height="71" viewBox="0 0 71 71" fill="none" xmlns="http://www.w3.org/2000/svg">
<path d="M3.29639 59.3054V40.9469L19.3576 34.0649L35.4188 40.9519V59.3054L19.3576 66.1823L3.29639 59.3054Z" stroke="black" stroke-linecap="round" stroke-linejoin="round"/>
<path d="M3.29639 40.9112L19.3576 47.7931L35.4188 40.9112M19.3576 15.833L35.4137 22.72L51.4749 15.8381" stroke="black" stroke-linecap="round" stroke-linejoin="round"/>
<path d="M35.4137 40.9114L51.4749 47.7933L67.5361 40.9114" stroke="black" stroke-linecap="round" stroke-linejoin="round"/>
<path d="M19.3575 47.8033V66.1873M51.485 47.8033V66.1873M35.4137 22.7201V41.0989M19.3677 34.0547V15.6961L35.4238 8.81421L51.485 15.6961V34.0547L35.4238 40.9366L19.3677 34.0547ZM35.4137 59.3053V40.9468L51.4749 34.0648L67.5361 40.9518V59.3053L51.4749 66.1822L35.4137 59.3053Z" stroke="black" stroke-linecap="round" stroke-linejoin="round"/>
</svg>
