<svg width="32" height="32" viewBox="0 0 32 32" fill="none" xmlns="http://www.w3.org/2000/svg">
<path d="M29.2706 22.4358C28.8166 22.1864 28.2467 22.3523 27.9975 22.806C27.7482 23.2598 27.9139 23.8298 28.3678 24.0791C29.4845 24.6926 30.125 25.3727 30.125 25.9451C30.125 26.6451 29.1331 27.7301 26.3492 28.6759C23.5989 29.6104 19.9234 30.125 16 30.125C12.0766 30.125 8.40112 29.6104 5.65081 28.6759C2.86688 27.7302 1.875 26.6451 1.875 25.9451C1.875 25.3727 2.5155 24.6926 3.63225 24.079C4.08606 23.8298 4.25181 23.2598 4.0025 22.8059C3.75319 22.3522 3.18338 22.1864 2.72944 22.4357C1.48431 23.1198 0 24.2839 0 25.9451C0 27.2184 0.87575 29.0339 5.04763 30.4513C7.98712 31.45 11.8767 32 16 32C20.1233 32 24.0129 31.45 26.9524 30.4513C31.1243 29.0339 32 27.2184 32 25.9451C32 24.2839 30.5157 23.1198 29.2706 22.4358Z" fill="black"/>
<path d="M8.922 27.3206C10.8251 27.8582 13.3388 28.1544 16 28.1544C18.6612 28.1544 21.1749 27.8583 23.078 27.3206C25.4063 26.6629 26.5869 25.7108 26.5869 24.4909C26.5869 23.271 25.4063 22.319 23.078 21.6613C22.5611 21.5153 21.999 21.3873 21.4014 21.278C21.0768 21.8388 20.7367 22.4159 20.3812 23.0098C21.0427 23.109 21.6637 23.2307 22.2278 23.3744C23.9412 23.8108 24.5673 24.3021 24.6959 24.491C24.5672 24.6799 23.9413 25.1712 22.2278 25.6076C20.606 26.0207 18.5194 26.2563 16.3217 26.2774C16.2153 26.2852 16.108 26.2897 16 26.2897C15.8919 26.2897 15.7847 26.2852 15.6783 26.2774C13.4806 26.2563 11.3939 26.0207 9.77213 25.6076C8.05863 25.1712 7.43269 24.6799 7.304 24.491C7.43269 24.3021 8.05869 23.8108 9.77219 23.3744C10.3362 23.2307 10.9573 23.109 11.6188 23.0098C11.2633 22.416 10.9232 21.8387 10.5986 21.278C10.001 21.3873 9.43881 21.5153 8.922 21.6613C6.59369 22.319 5.41313 23.2711 5.41313 24.4909C5.41313 25.7108 6.59369 26.6629 8.922 27.3206Z" fill="black"/>
<path d="M16 24.4146C16.8346 24.4146 17.5926 23.9894 18.028 23.2771C21.0786 18.286 24.715 11.7081 24.715 8.71494C24.715 3.9095 20.8055 0 16 0C11.1945 0 7.285 3.9095 7.285 8.71494C7.285 11.7081 10.9214 18.286 13.972 23.2771C14.4074 23.9894 15.1655 24.4146 16 24.4146ZM12.4971 8.11656C12.4971 6.18513 14.0685 4.61375 16 4.61375C17.9315 4.61375 19.5029 6.18513 19.5029 8.11656C19.5029 10.0481 17.9315 11.6194 16 11.6194C14.0685 11.6194 12.4971 10.0481 12.4971 8.11656Z" fill="black"/>
</svg>
