<svg width="28" height="29" viewBox="0 0 28 29" fill="none" xmlns="http://www.w3.org/2000/svg">
<path d="M26.0332 1.8426C25.4144 1.23055 24.6769 0.75168 23.866 0.435509C23.0551 0.119339 22.1881 -0.0274393 21.3184 0.00421896C19.6457 0.0653526 18.0596 0.763624 16.885 1.95605C15.7103 3.14848 15.036 4.74485 15 6.41828C14.9766 7.83698 15.4259 9.22314 16.2773 10.3582C16.3975 10.5374 19.3115 14.5902 20.2061 15.8304C20.3505 16.0261 20.5387 16.1853 20.7556 16.2954C20.9725 16.4055 21.2121 16.4633 21.4553 16.4644C21.6985 16.4654 21.9386 16.4096 22.1565 16.3014C22.3743 16.1932 22.5638 16.0356 22.71 15.8411C22.71 15.8411 26.5654 10.5731 26.6816 10.4246C27.5321 9.29291 27.9944 7.9169 28 6.50129C28.003 5.6323 27.8303 4.77168 27.4923 3.9711C27.1543 3.17053 26.658 2.44654 26.0332 1.8426ZM21.5 9.09455C21.0055 9.09455 20.5222 8.94793 20.1111 8.67322C19.7 8.39852 19.3795 8.00807 19.1903 7.55126C19.0011 7.09444 18.9516 6.59178 19.048 6.10682C19.1445 5.62187 19.3826 5.17641 19.7322 4.82678C20.0819 4.47715 20.5273 4.23905 21.0123 4.14259C21.4972 4.04612 21.9999 4.09563 22.4567 4.28485C22.9135 4.47407 23.304 4.7945 23.5787 5.20562C23.8534 5.61675 24 6.1001 24 6.59455C23.9993 7.25738 23.7357 7.89286 23.267 8.36155C22.7983 8.83024 22.1628 9.09385 21.5 9.09455ZM5 25.5945C5 26.089 4.85338 26.5724 4.57867 26.9835C4.30397 27.3946 3.91352 27.715 3.45671 27.9042C2.99989 28.0935 2.49723 28.143 2.01228 28.0465C1.52732 27.9501 1.08187 27.7119 0.732234 27.3623C0.382603 27.0127 0.144501 26.5672 0.0480379 26.0823C-0.0484251 25.5973 0.00108321 25.0947 0.190302 24.6378C0.379521 24.181 0.699953 23.7906 1.11108 23.5159C1.5222 23.2412 2.00555 23.0945 2.5 23.0945C3.1628 23.0953 3.79824 23.359 4.26691 23.8276C4.73558 24.2963 4.99922 24.9317 5 25.5945ZM16 23.0945C15.9991 23.8899 15.6828 24.6525 15.1204 25.2149C14.5579 25.7773 13.7954 26.0937 13 26.0945H6.94946C7.0484 25.4196 6.97057 24.7305 6.72357 24.0945H13C13.2652 24.0945 13.5196 23.9892 13.7071 23.8017C13.8946 23.6141 14 23.3598 14 23.0945C14 22.8293 13.8946 22.575 13.7071 22.3874C13.5196 22.1999 13.2652 22.0945 13 22.0945H9C8.20462 22.0937 7.44206 21.7773 6.87964 21.2149C6.31722 20.6525 6.00087 19.8899 6 19.0945V18.0945C6.00087 17.2992 6.31722 16.5366 6.87964 15.9742C7.44206 15.4118 8.20462 15.0954 9 15.0945H17.212C17.8504 15.9625 18.2956 16.6412 18.6708 17.0945H9C8.73489 17.0949 8.48074 17.2004 8.29327 17.3878C8.10581 17.5753 8.00035 17.8294 8 18.0945V19.0945C8.00035 19.3597 8.10581 19.6138 8.29327 19.8013C8.48074 19.9887 8.73489 20.0942 9 20.0945H13C13.7954 20.0954 14.5579 20.4118 15.1204 20.9742C15.6828 21.5366 15.9991 22.2992 16 23.0945Z" fill="black"/>
</svg>
