<svg width="77" height="77" viewBox="0 0 77 77" fill="none" xmlns="http://www.w3.org/2000/svg">
<rect x="0.5" y="0.5" width="76" height="76" stroke="white"/>
<path d="M38.5001 63.8459C43.6869 62.2418 48.0181 59.0741 51.4938 54.3429C54.9695 49.6116 57.0015 44.3307 57.5897 38.5001H38.5001V13.2954L20.5462 19.9591C20.1334 20.1238 19.8147 20.3709 19.5902 20.7003C19.3634 21.0297 19.2501 21.3997 19.2501 21.8104V36.9954C19.2501 37.4103 19.3036 37.9119 19.4105 38.5001H38.5001V63.8459ZM38.5001 66.8682C38.2092 66.8682 37.9023 66.8415 37.5793 66.788C37.2563 66.7345 36.9569 66.6543 36.681 66.5474C30.3648 64.1411 25.3459 60.0601 21.6242 54.3044C17.9026 48.5486 16.0417 42.318 16.0417 35.6126V21.8713C16.0417 20.7805 16.3572 19.7934 16.9882 18.91C17.6192 18.0267 18.4266 17.385 19.4105 16.985L36.6874 10.5684C37.3119 10.3416 37.9162 10.2283 38.5001 10.2283C39.084 10.2283 39.6893 10.3416 40.316 10.5684L57.5897 16.985C58.5735 17.385 59.381 18.0267 60.0119 18.91C60.6429 19.7934 60.9584 20.7805 60.9584 21.8713V35.6126C60.9584 42.318 59.0976 48.5486 55.3759 54.3044C51.6542 60.0601 46.6353 64.1411 40.3192 66.5474C40.0411 66.6543 39.7417 66.7345 39.4209 66.788C39.1 66.8415 38.7931 66.8682 38.5001 66.8682Z" fill="black"/>
</svg>
